<?xml version="1.0" standalone="no"?>
<!DOCTYPE svg PUBLIC "-//W3C//DTD SVG 20010904//EN"
 "http://www.w3.org/TR/2001/REC-SVG-20010904/DTD/svg10.dtd">
<svg version="1.0" xmlns="http://www.w3.org/2000/svg"
 width="258.000000pt" height="195.000000pt" viewBox="0 0 258.000000 195.000000"
 preserveAspectRatio="xMidYMid meet">

<g transform="translate(0.000000,195.000000) scale(0.100000,-0.100000)"
fill="#000000" stroke="none">
<path d="M825 1799 c-49 -4 -113 -14 -142 -23 -43 -14 -50 -19 -46 -36 5 -18
0 -20 -42 -20 -58 0 -165 -59 -165 -91 0 -13 -7 -19 -23 -19 -33 0 -107 -78
-107 -113 0 -21 -5 -27 -23 -27 -36 0 -87 -94 -87 -160 0 -50 -1 -52 -25 -48
-22 5 -26 0 -41 -51 -36 -123 -35 -350 1 -476 14 -47 20 -55 41 -55 22 0 24
-4 24 -47 0 -65 49 -153 85 -153 21 0 25 -5 25 -29 0 -36 77 -111 115 -111 19
0 25 -5 25 -23 0 -34 94 -87 155 -87 42 0 46 -2 43 -22 -3 -19 5 -24 57 -40
33 -10 90 -18 128 -18 37 0 76 -6 87 -12 16 -10 24 -10 40 0 11 6 52 12 91 12
39 0 95 7 125 16 46 13 54 19 54 40 0 22 4 24 47 24 61 0 153 52 153 87 0 18
5 23 28 23 38 0 112 75 112 113 0 21 5 27 23 27 36 0 87 87 87 150 0 46 2 50
24 50 21 0 26 8 44 77 23 89 37 243 22 243 -6 0 -10 33 -10 74 0 45 -8 98 -19
135 l-19 61 109 0 109 0 0 235 0 235 -354 0 c-290 0 -355 2 -359 14 -14 35
-219 59 -392 45z m80 -59 c0 -12 -20 -16 -107 -18 -103 -3 -108 -2 -108 18 0
20 5 21 108 18 87 -2 107 -6 107 -18z m265 0 c0 -19 -7 -20 -104 -20 -100 0
-125 7 -111 30 3 6 52 10 111 10 97 0 104 -1 104 -20z m-532 -97 l3 -33 -80 0
-81 0 0 28 c0 16 3 32 7 36 4 4 39 5 78 4 l70 -3 3 -32z m270 0 l3 -33 -110 0
-111 0 0 35 0 36 108 -3 107 -3 3 -32z m262 2 l0 -36 -107 3 c-95 3 -108 5
-111 21 -8 43 2 47 113 47 l105 0 0 -35z m670 -10 c27 -14 60 -51 60 -67 0
-17 -58 -7 -75 12 -23 25 -66 26 -96 1 -20 -16 -24 -29 -24 -71 0 -42 4 -55
24 -71 28 -23 59 -24 89 -3 34 24 28 44 -14 44 -31 0 -35 3 -32 23 3 19 10 22
61 25 l57 3 0 -76 c0 -68 -2 -75 -20 -75 -12 0 -20 7 -20 16 0 13 -5 12 -26
-5 -50 -40 -139 -19 -169 39 -8 16 -15 54 -15 84 0 44 5 60 27 86 14 18 36 36
47 40 34 14 95 11 126 -5z m-415 -9 c58 -25 74 -76 22 -76 -24 0 -35 6 -42 23
-13 28 -79 37 -89 12 -10 -26 0 -33 74 -55 74 -22 90 -38 90 -88 0 -97 -205
-103 -222 -7 -5 32 38 32 63 1 23 -29 64 -34 94 -12 28 21 7 40 -61 55 -65 15
-94 39 -94 79 0 65 87 100 165 68z m165 -121 l0 -135 -29 0 -30 0 -3 135 -3
135 33 0 32 0 0 -135z m-1160 10 l0 -45 -45 0 -45 0 0 45 0 45 45 0 45 0 0
-45z m210 0 l0 -45 -80 0 -80 0 0 45 0 45 80 0 80 0 0 -45z m270 0 l0 -45
-110 0 -110 0 0 45 0 45 110 0 110 0 0 -45z m260 0 c0 -41 2 -45 25 -45 l25 0
0 -100 0 -100 175 0 175 0 0 -24 c0 -19 6 -25 28 -28 l27 -3 0 -105 0 -105
-32 -3 -33 -3 0 110 0 111 -195 0 -195 0 0 125 0 124 -107 3 -108 3 -3 43 -3
42 110 0 111 0 0 -45z m-880 -170 l0 -75 -30 0 -30 0 0 75 0 75 30 0 30 0 0
-75z m140 0 l0 -75 -45 0 -45 0 0 75 0 75 45 0 45 0 0 -75z m210 0 l0 -75 -80
0 -80 0 0 75 0 75 80 0 80 0 0 -75z m270 0 l0 -75 -110 0 -110 0 0 75 0 75
110 0 110 0 0 -75z m-730 -235 c0 -91 -3 -110 -15 -110 -12 0 -15 19 -15 110
0 91 3 110 15 110 12 0 15 -19 15 -110z m110 0 l0 -110 -30 0 -30 0 0 110 0
110 30 0 30 0 0 -110z m140 0 l0 -110 -45 0 -45 0 0 110 0 110 45 0 45 0 0
-110z m210 0 l0 -110 -80 0 -80 0 0 110 0 110 80 0 80 0 0 -110z m310 0 l0
-110 135 0 135 0 0 -25 c0 -25 1 -25 80 -25 l81 0 -3 -107 -3 -108 -77 -3 -78
-3 0 111 0 110 -160 0 -160 0 0 135 0 135 25 0 25 0 0 -110z m760 0 c0 -103
-1 -110 -20 -110 -19 0 -20 7 -20 110 0 103 1 110 20 110 19 0 20 -7 20 -110z
m-1530 -270 c0 -91 -3 -110 -15 -110 -12 0 -15 19 -15 110 0 91 3 110 15 110
12 0 15 -19 15 -110z m110 -1 l0 -110 -27 3 -28 3 -3 108 -3 107 31 0 30 0 0
-111z m140 0 l0 -110 -42 3 -43 3 -3 108 -3 107 46 0 45 0 0 -111z m208 4 l-3
-108 -75 0 -75 0 -3 108 -3 107 81 0 81 0 -3 -107z m880 0 l-3 -108 -45 0 -45
0 -3 108 -3 107 51 0 51 0 -3 -107z m110 0 l-3 -108 -30 0 -30 0 -3 108 -3
107 36 0 36 0 -3 -107z m82 -4 c0 -100 -2 -110 -17 -107 -16 3 -18 18 -21 111
-3 102 -2 107 18 107 19 0 20 -6 20 -111z m-1420 -229 l0 -80 -30 0 -30 0 0
80 0 80 30 0 30 0 0 -80z m140 0 l0 -80 -45 0 -45 0 0 80 0 80 45 0 45 0 0
-80z m208 -2 l3 -78 -81 0 -80 0 0 80 0 81 78 -3 77 -3 3 -77z m270 0 l3 -78
-111 0 -110 0 0 80 0 81 108 -3 107 -3 3 -77z m262 2 l0 -81 -107 3 -108 3 -3
64 c-2 35 -1 70 2 77 4 11 31 14 111 14 l105 0 0 -80z m208 -2 l3 -78 -81 0
-80 0 0 80 0 81 78 -3 77 -3 3 -77z m132 2 l0 -80 -45 0 -45 0 0 73 c0 41 3
77 7 80 3 4 24 7 45 7 l38 0 0 -80z m115 0 l0 -75 -32 -3 -33 -3 0 74 c0 40 3
77 7 81 4 4 19 6 33 4 24 -3 25 -5 25 -78z m-1195 -175 l0 -45 -45 0 -45 0 0
45 0 45 45 0 45 0 0 -45z m210 0 l0 -45 -80 0 -80 0 0 45 0 45 80 0 80 0 0
-45z m270 0 l0 -45 -110 0 -110 0 0 45 0 45 110 0 110 0 0 -45z m260 0 l0 -46
-107 3 -108 3 -3 43 -3 42 110 0 111 0 0 -45z m210 0 l0 -45 -80 0 -80 0 0 45
0 45 80 0 80 0 0 -45z m138 3 l-3 -43 -47 -3 -48 -3 0 45 0 46 51 0 50 0 -3
-42z m-878 -128 l0 -30 -80 0 -80 0 0 30 0 30 80 0 80 0 0 -30z m270 0 l0 -30
-110 0 -110 0 0 30 0 30 110 0 110 0 0 -30z m260 0 l0 -30 -110 0 -110 0 0 30
0 30 110 0 110 0 0 -30z m210 0 l0 -30 -80 0 -80 0 0 30 0 30 80 0 80 0 0 -30z
m-470 -95 c0 -12 -19 -15 -110 -15 -91 0 -110 3 -110 15 0 12 19 15 110 15 91
0 110 -3 110 -15z m260 0 c0 -12 -19 -15 -110 -15 -91 0 -110 3 -110 15 0 12
19 15 110 15 91 0 110 -3 110 -15z"/>
<path d="M2013 1630 c-32 -13 -56 -55 -49 -85 7 -27 41 -47 114 -65 49 -13 64
-36 37 -56 -29 -21 -63 -17 -91 11 -30 30 -64 33 -64 7 0 -10 12 -29 26 -43
21 -20 36 -24 84 -24 48 1 64 5 85 25 51 48 24 109 -57 130 -69 17 -90 29 -86
48 5 27 83 30 100 3 8 -13 23 -21 40 -21 34 0 35 11 5 46 -18 21 -34 27 -73
30 -27 2 -59 0 -71 -6z"/>
<path d="M2294 1588 c-9 -29 -30 -88 -45 -130 l-28 -78 28 0 c23 0 31 6 40 31
10 29 12 30 63 27 46 -3 53 -6 58 -28 4 -18 13 -26 33 -28 32 -4 33 -2 6 68
-76 205 -68 190 -104 190 -31 0 -34 -3 -51 -52z m80 -95 c7 -21 4 -23 -28 -23
-20 0 -36 4 -36 9 0 7 12 48 27 91 5 14 15 -7 37 -77z"/>
<path d="M1658 284 c-86 -46 -49 -174 50 -174 77 0 122 72 87 139 -25 49 -84
64 -137 35z m102 -29 c33 -35 31 -81 -4 -112 -30 -26 -44 -28 -79 -12 -47 21
-60 80 -26 123 27 35 77 36 109 1z"/>
<path d="M1670 200 c0 -27 5 -50 10 -50 6 0 10 9 10 20 0 11 7 20 15 20 8 0
15 -6 15 -14 0 -16 18 -31 26 -23 3 3 1 14 -5 25 -7 13 -7 22 1 30 20 20 1 42
-37 42 l-35 0 0 -50z m58 23 c2 -8 -5 -13 -17 -13 -12 0 -21 6 -21 16 0 18 31
15 38 -3z"/>
</g>
</svg>
