<?xml version="1.0" standalone="no"?>
<!DOCTYPE svg PUBLIC "-//W3C//DTD SVG 20010904//EN"
 "http://www.w3.org/TR/2001/REC-SVG-20010904/DTD/svg10.dtd">
<svg version="1.0" xmlns="http://www.w3.org/2000/svg"
 width="225.000000pt" height="225.000000pt" viewBox="0 0 225.000000 225.000000"
 preserveAspectRatio="xMidYMid meet">

<g transform="translate(0.000000,225.000000) scale(0.100000,-0.100000)"
fill="#000000" stroke="none">
<path d="M1090 1664 c-16 -37 -30 -68 -30 -70 0 -2 29 -4 65 -4 36 0 65 2 65
4 0 8 -62 136 -66 136 -2 0 -17 -30 -34 -66z"/>
<path d="M702 1463 c16 -38 32 -70 35 -73 4 -5 82 81 83 92 0 7 -121 48 -140
48 -5 0 5 -30 22 -67z"/>
<path d="M1488 1508 c-32 -11 -58 -25 -58 -32 0 -6 18 -29 40 -51 l40 -39 30
67 c16 37 30 69 30 72 0 9 -23 4 -82 -17z"/>
<path d="M1019 1475 c-250 -80 -319 -395 -127 -577 91 -87 231 -113 355 -66
79 29 162 112 191 191 63 167 -3 344 -160 427 -52 28 -75 34 -138 37 -47 2
-92 -3 -121 -12z"/>
<path d="M1560 1155 c0 -36 2 -65 5 -65 12 0 138 61 134 64 -3 3 -35 18 -72
35 l-67 30 0 -64z"/>
<path d="M608 1183 c-32 -14 -58 -29 -58 -32 1 -6 120 -61 133 -61 4 0 7 27 7
60 0 70 -1 70 -82 33z"/>
<path d="M703 840 c-20 -45 -27 -70 -19 -70 17 0 136 41 136 47 0 7 -74 93
-80 93 -3 0 -20 -31 -37 -70z"/>
<path d="M1459 863 l-43 -47 73 -24 c40 -13 74 -22 77 -19 5 5 -52 137 -59
137 -2 0 -24 -21 -48 -47z"/>
<path d="M1061 703 c0 -5 15 -39 33 -77 l32 -70 28 65 c15 35 30 70 33 77 4 9
-12 12 -61 12 -36 0 -66 -3 -65 -7z"/>
</g>
</svg>
